# Blender 5.1.1
# www.blender.org
mtllib circle.mtl
o Plane
v 0.000000 0.000000 -0.000000
v 0.049246 0.500000 -0.000000
v 0.145844 0.480786 -0.000000
v 0.236839 0.443094 -0.000000
v 0.318732 0.388375 -0.000000
v 0.388376 0.318731 -0.000000
v 0.443094 0.236839 -0.000000
v 0.480785 0.145844 -0.000000
v 0.500000 0.049246 -0.000000
v 0.500000 -0.049246 -0.000000
v 0.480785 -0.145845 -0.000000
v 0.443094 -0.236839 -0.000000
v 0.388375 -0.318731 -0.000000
v 0.318731 -0.388375 -0.000000
v 0.236839 -0.443094 -0.000000
v 0.145844 -0.480785 -0.000000
v 0.049246 -0.500000 -0.000000
v -0.049246 -0.500000 -0.000000
v -0.145845 -0.480785 -0.000000
v -0.236839 -0.443094 -0.000000
v -0.318732 -0.388375 -0.000000
v -0.388376 -0.318731 -0.000000
v -0.443094 -0.236838 -0.000000
v -0.480785 -0.145844 -0.000000
v -0.500000 -0.049245 -0.000000
v -0.500000 0.049246 -0.000000
v -0.480785 0.145845 -0.000000
v -0.443094 0.236839 -0.000000
v -0.388375 0.318732 -0.000000
v -0.318731 0.388376 -0.000000
v -0.236838 0.443095 -0.000000
v -0.145844 0.480785 -0.000000
v -0.049246 0.500000 -0.000000
vn -0.0000 -0.0000 -1.0000
vt 0.984375 0.000000
vt 0.984375 1.000000
vt 0.953125 1.000000
vt 0.015625 0.000000
vt 0.015625 1.000000
vt -0.015625 1.000000
vt 0.046875 0.000000
vt 0.046875 1.000000
vt 0.078125 0.000000
vt 0.078125 1.000000
vt 0.109375 0.000000
vt 0.109375 1.000000
vt 0.140625 0.000000
vt 0.140625 1.000000
vt 0.171875 0.000000
vt 0.171875 1.000000
vt 0.203125 0.000000
vt 0.203125 1.000000
vt 0.234375 0.000000
vt 0.234375 1.000000
vt 0.265625 0.000000
vt 0.265625 1.000000
vt 0.296875 0.000000
vt 0.296875 1.000000
vt 0.328125 0.000000
vt 0.328125 1.000000
vt 0.359375 0.000000
vt 0.359375 1.000000
vt 0.390625 0.000000
vt 0.390625 1.000000
vt 0.421875 0.000000
vt 0.421875 1.000000
vt 0.453125 0.000000
vt 0.453125 1.000000
vt 0.484375 0.000000
vt 0.484375 1.000000
vt 0.515625 0.000000
vt 0.515625 1.000000
vt 0.546875 0.000000
vt 0.546875 1.000000
vt 0.578125 0.000000
vt 0.578125 1.000000
vt 0.609375 0.000000
vt 0.609375 1.000000
vt 0.640625 0.000000
vt 0.640625 1.000000
vt 0.671875 0.000000
vt 0.671875 1.000000
vt 0.703125 0.000000
vt 0.703125 1.000000
vt 0.734375 0.000000
vt 0.734375 1.000000
vt 0.765625 0.000000
vt 0.765625 1.000000
vt 0.796875 0.000000
vt 0.796875 1.000000
vt 0.828125 0.000000
vt 0.828125 1.000000
vt 0.859375 0.000000
vt 0.859375 1.000000
vt 0.890625 0.000000
vt 0.890625 1.000000
vt 0.921875 0.000000
vt 0.921875 1.000000
vt 0.953125 0.000000
s 0
f 1/1/1 2/2/1 3/3/1
f 1/4/1 33/5/1 2/6/1
f 1/7/1 32/8/1 33/5/1
f 1/9/1 31/10/1 32/8/1
f 1/11/1 30/12/1 31/10/1
f 1/13/1 29/14/1 30/12/1
f 1/15/1 28/16/1 29/14/1
f 1/17/1 27/18/1 28/16/1
f 1/19/1 26/20/1 27/18/1
f 1/21/1 25/22/1 26/20/1
f 1/23/1 24/24/1 25/22/1
f 1/25/1 23/26/1 24/24/1
f 1/27/1 22/28/1 23/26/1
f 1/29/1 21/30/1 22/28/1
f 1/31/1 20/32/1 21/30/1
f 1/33/1 19/34/1 20/32/1
f 1/35/1 18/36/1 19/34/1
f 1/37/1 17/38/1 18/36/1
f 1/39/1 16/40/1 17/38/1
f 1/41/1 15/42/1 16/40/1
f 1/43/1 14/44/1 15/42/1
f 1/45/1 13/46/1 14/44/1
f 1/47/1 12/48/1 13/46/1
f 1/49/1 11/50/1 12/48/1
f 1/51/1 10/52/1 11/50/1
f 1/53/1 9/54/1 10/52/1
f 1/55/1 8/56/1 9/54/1
f 1/57/1 7/58/1 8/56/1
f 1/59/1 6/60/1 7/58/1
f 1/61/1 5/62/1 6/60/1
f 1/63/1 4/64/1 5/62/1
f 1/65/1 3/3/1 4/64/1
